<mxfile host="app.diagrams.net" modified="2023-11-02T11:36:53.403Z" agent="Mozilla/5.0 (Windows NT 10.0; Win64; x64) AppleWebKit/537.36 (KHTML, like Gecko) Chrome/118.0.0.0 Safari/537.36 Edg/118.0.2088.76" etag="_nV0wE6U0eTTML6sCtt7" version="22.0.8" type="github">
  <diagram id="C5RBs43oDa-KdzZeNtuy" name="Page-1">
    <mxGraphModel dx="1386" dy="793" grid="1" gridSize="10" guides="1" tooltips="1" connect="1" arrows="1" fold="1" page="1" pageScale="1" pageWidth="827" pageHeight="1169" math="0" shadow="0">
      <root>
        <mxCell id="WIyWlLk6GJQsqaUBKTNV-0" />
        <mxCell id="WIyWlLk6GJQsqaUBKTNV-1" parent="WIyWlLk6GJQsqaUBKTNV-0" />
        <mxCell id="mPyTUqxMGJh4DycX4-v5-0" value="Barrios" style="rounded=0;whiteSpace=wrap;html=1;" parent="WIyWlLk6GJQsqaUBKTNV-1" vertex="1">
          <mxGeometry x="1030" y="370" width="120" height="60" as="geometry" />
        </mxCell>
        <mxCell id="mPyTUqxMGJh4DycX4-v5-1" value="Tramos" style="rounded=0;whiteSpace=wrap;html=1;" parent="WIyWlLk6GJQsqaUBKTNV-1" vertex="1">
          <mxGeometry x="1030" y="267.5" width="120" height="60" as="geometry" />
        </mxCell>
        <mxCell id="mPyTUqxMGJh4DycX4-v5-2" value="Calles" style="rounded=0;whiteSpace=wrap;html=1;" parent="WIyWlLk6GJQsqaUBKTNV-1" vertex="1">
          <mxGeometry x="1030" y="160" width="120" height="60" as="geometry" />
        </mxCell>
        <mxCell id="mPyTUqxMGJh4DycX4-v5-3" value="Estaciones" style="rounded=0;whiteSpace=wrap;html=1;" parent="WIyWlLk6GJQsqaUBKTNV-1" vertex="1">
          <mxGeometry x="1580" y="710" width="120" height="60" as="geometry" />
        </mxCell>
        <mxCell id="mPyTUqxMGJh4DycX4-v5-4" value="Líneas de metro" style="rounded=0;whiteSpace=wrap;html=1;" parent="WIyWlLk6GJQsqaUBKTNV-1" vertex="1">
          <mxGeometry x="1037" y="710" width="120" height="60" as="geometry" />
        </mxCell>
        <mxCell id="mPyTUqxMGJh4DycX4-v5-5" value="Puntos de Interés" style="rounded=0;whiteSpace=wrap;html=1;" parent="WIyWlLk6GJQsqaUBKTNV-1" vertex="1">
          <mxGeometry x="1022" y="1040" width="120" height="60" as="geometry" />
        </mxCell>
        <mxCell id="mPyTUqxMGJh4DycX4-v5-6" value="Líneas de autobuses&amp;nbsp;" style="rounded=0;whiteSpace=wrap;html=1;" parent="WIyWlLk6GJQsqaUBKTNV-1" vertex="1">
          <mxGeometry x="1570" y="270" width="120" height="60" as="geometry" />
        </mxCell>
        <mxCell id="mPyTUqxMGJh4DycX4-v5-23" value="&amp;nbsp;lineas_autobuses_tramos" style="strokeWidth=2;html=1;shape=mxgraph.flowchart.decision;whiteSpace=wrap;" parent="WIyWlLk6GJQsqaUBKTNV-1" vertex="1">
          <mxGeometry x="1280" y="250" width="160" height="100" as="geometry" />
        </mxCell>
        <mxCell id="mPyTUqxMGJh4DycX4-v5-24" value="lineas_metro_estaciones" style="strokeWidth=2;html=1;shape=mxgraph.flowchart.decision;whiteSpace=wrap;" parent="WIyWlLk6GJQsqaUBKTNV-1" vertex="1">
          <mxGeometry x="1290" y="690" width="160" height="100" as="geometry" />
        </mxCell>
        <mxCell id="mPyTUqxMGJh4DycX4-v5-28" value="nombre_calle" style="ellipse;whiteSpace=wrap;html=1;" parent="WIyWlLk6GJQsqaUBKTNV-1" vertex="1">
          <mxGeometry x="980" y="60" width="80" height="60" as="geometry" />
        </mxCell>
        <mxCell id="mPyTUqxMGJh4DycX4-v5-29" value="id_calle" style="ellipse;whiteSpace=wrap;html=1;" parent="WIyWlLk6GJQsqaUBKTNV-1" vertex="1">
          <mxGeometry x="1120" y="60" width="80" height="60" as="geometry" />
        </mxCell>
        <mxCell id="mPyTUqxMGJh4DycX4-v5-32" value="id_calle_inicio" style="ellipse;whiteSpace=wrap;html=1;" parent="WIyWlLk6GJQsqaUBKTNV-1" vertex="1">
          <mxGeometry x="810" y="150" width="80" height="60" as="geometry" />
        </mxCell>
        <mxCell id="mPyTUqxMGJh4DycX4-v5-33" value="id_punto_interes" style="ellipse;whiteSpace=wrap;html=1;" parent="WIyWlLk6GJQsqaUBKTNV-1" vertex="1">
          <mxGeometry x="819" y="960" width="93" height="60" as="geometry" />
        </mxCell>
        <mxCell id="mPyTUqxMGJh4DycX4-v5-35" value="id_linea_autobus" style="ellipse;whiteSpace=wrap;html=1;" parent="WIyWlLk6GJQsqaUBKTNV-1" vertex="1">
          <mxGeometry x="1740" y="220" width="100" height="60" as="geometry" />
        </mxCell>
        <mxCell id="mPyTUqxMGJh4DycX4-v5-37" value="nombre_punto_interes" style="ellipse;whiteSpace=wrap;html=1;" parent="WIyWlLk6GJQsqaUBKTNV-1" vertex="1">
          <mxGeometry x="795" y="1120" width="124" height="60" as="geometry" />
        </mxCell>
        <mxCell id="mPyTUqxMGJh4DycX4-v5-40" value="nombre_linea_metro" style="ellipse;whiteSpace=wrap;html=1;" parent="WIyWlLk6GJQsqaUBKTNV-1" vertex="1">
          <mxGeometry x="870" y="760" width="117" height="60" as="geometry" />
        </mxCell>
        <mxCell id="mPyTUqxMGJh4DycX4-v5-41" value="tipo_punto_interes" style="ellipse;whiteSpace=wrap;html=1;" parent="WIyWlLk6GJQsqaUBKTNV-1" vertex="1">
          <mxGeometry x="802" y="1040" width="110" height="60" as="geometry" />
        </mxCell>
        <mxCell id="mPyTUqxMGJh4DycX4-v5-42" value="nombre_linea_autobus" style="ellipse;whiteSpace=wrap;html=1;" parent="WIyWlLk6GJQsqaUBKTNV-1" vertex="1">
          <mxGeometry x="1740" y="320" width="133" height="60" as="geometry" />
        </mxCell>
        <mxCell id="mPyTUqxMGJh4DycX4-v5-44" value="id_linea_metro" style="ellipse;whiteSpace=wrap;html=1;" parent="WIyWlLk6GJQsqaUBKTNV-1" vertex="1">
          <mxGeometry x="894" y="675" width="90.5" height="60" as="geometry" />
        </mxCell>
        <mxCell id="mPyTUqxMGJh4DycX4-v5-45" value="nombre_estacion" style="ellipse;whiteSpace=wrap;html=1;" parent="WIyWlLk6GJQsqaUBKTNV-1" vertex="1">
          <mxGeometry x="1750" y="760" width="100" height="60" as="geometry" />
        </mxCell>
        <mxCell id="mPyTUqxMGJh4DycX4-v5-46" value="id_estacion" style="ellipse;whiteSpace=wrap;html=1;" parent="WIyWlLk6GJQsqaUBKTNV-1" vertex="1">
          <mxGeometry x="1750" y="650" width="80" height="60" as="geometry" />
        </mxCell>
        <mxCell id="mPyTUqxMGJh4DycX4-v5-47" value="id_barrio" style="ellipse;whiteSpace=wrap;html=1;" parent="WIyWlLk6GJQsqaUBKTNV-1" vertex="1">
          <mxGeometry x="1200" y="420" width="80" height="60" as="geometry" />
        </mxCell>
        <mxCell id="mPyTUqxMGJh4DycX4-v5-48" value="id_barrio" style="ellipse;whiteSpace=wrap;html=1;" parent="WIyWlLk6GJQsqaUBKTNV-1" vertex="1">
          <mxGeometry x="800" y="230" width="80" height="60" as="geometry" />
        </mxCell>
        <mxCell id="mPyTUqxMGJh4DycX4-v5-49" value="id_tramo" style="ellipse;whiteSpace=wrap;html=1;" parent="WIyWlLk6GJQsqaUBKTNV-1" vertex="1">
          <mxGeometry x="800" y="307.5" width="80" height="60" as="geometry" />
        </mxCell>
        <mxCell id="mPyTUqxMGJh4DycX4-v5-50" value="nombre_barrio" style="ellipse;whiteSpace=wrap;html=1;" parent="WIyWlLk6GJQsqaUBKTNV-1" vertex="1">
          <mxGeometry x="1200" y="320" width="80" height="60" as="geometry" />
        </mxCell>
        <mxCell id="mPyTUqxMGJh4DycX4-v5-52" value="Localizaciones" style="rounded=0;whiteSpace=wrap;html=1;" parent="WIyWlLk6GJQsqaUBKTNV-1" vertex="1">
          <mxGeometry x="1596.5" y="1040" width="120" height="60" as="geometry" />
        </mxCell>
        <mxCell id="mPyTUqxMGJh4DycX4-v5-53" value="id_tramo_inicio&amp;nbsp;" style="ellipse;whiteSpace=wrap;html=1;" parent="WIyWlLk6GJQsqaUBKTNV-1" vertex="1">
          <mxGeometry x="1320" y="120" width="80" height="60" as="geometry" />
        </mxCell>
        <mxCell id="mPyTUqxMGJh4DycX4-v5-54" value="&amp;nbsp;id_tramo_fin" style="ellipse;whiteSpace=wrap;html=1;" parent="WIyWlLk6GJQsqaUBKTNV-1" vertex="1">
          <mxGeometry x="1410" y="120" width="80" height="60" as="geometry" />
        </mxCell>
        <mxCell id="mPyTUqxMGJh4DycX4-v5-55" value="&amp;nbsp;id_linea_autobus" style="ellipse;whiteSpace=wrap;html=1;" parent="WIyWlLk6GJQsqaUBKTNV-1" vertex="1">
          <mxGeometry x="1210" y="120" width="97" height="60" as="geometry" />
        </mxCell>
        <mxCell id="mPyTUqxMGJh4DycX4-v5-56" value="" style="endArrow=none;html=1;rounded=0;" parent="WIyWlLk6GJQsqaUBKTNV-1" edge="1">
          <mxGeometry width="50" height="50" relative="1" as="geometry">
            <mxPoint x="1359.5" y="250" as="sourcePoint" />
            <mxPoint x="1360" y="180" as="targetPoint" />
          </mxGeometry>
        </mxCell>
        <mxCell id="mPyTUqxMGJh4DycX4-v5-57" value="" style="endArrow=none;html=1;rounded=0;" parent="WIyWlLk6GJQsqaUBKTNV-1" edge="1">
          <mxGeometry width="50" height="50" relative="1" as="geometry">
            <mxPoint x="1360" y="250" as="sourcePoint" />
            <mxPoint x="1440" y="180" as="targetPoint" />
          </mxGeometry>
        </mxCell>
        <mxCell id="mPyTUqxMGJh4DycX4-v5-58" value="" style="endArrow=none;html=1;rounded=0;" parent="WIyWlLk6GJQsqaUBKTNV-1" source="mPyTUqxMGJh4DycX4-v5-55" edge="1">
          <mxGeometry width="50" height="50" relative="1" as="geometry">
            <mxPoint x="1300" y="220" as="sourcePoint" />
            <mxPoint x="1360" y="250" as="targetPoint" />
          </mxGeometry>
        </mxCell>
        <mxCell id="mPyTUqxMGJh4DycX4-v5-60" value="" style="endArrow=none;html=1;rounded=0;entryX=0.5;entryY=1;entryDx=0;entryDy=0;" parent="WIyWlLk6GJQsqaUBKTNV-1" target="mPyTUqxMGJh4DycX4-v5-65" edge="1">
          <mxGeometry width="50" height="50" relative="1" as="geometry">
            <mxPoint x="1369.5" y="690" as="sourcePoint" />
            <mxPoint x="1370" y="620" as="targetPoint" />
          </mxGeometry>
        </mxCell>
        <mxCell id="mPyTUqxMGJh4DycX4-v5-62" value="" style="endArrow=none;html=1;rounded=0;entryX=0.388;entryY=0.983;entryDx=0;entryDy=0;entryPerimeter=0;" parent="WIyWlLk6GJQsqaUBKTNV-1" target="mPyTUqxMGJh4DycX4-v5-67" edge="1">
          <mxGeometry width="50" height="50" relative="1" as="geometry">
            <mxPoint x="1370" y="690" as="sourcePoint" />
            <mxPoint x="1450" y="620" as="targetPoint" />
          </mxGeometry>
        </mxCell>
        <mxCell id="mPyTUqxMGJh4DycX4-v5-64" value="" style="endArrow=none;html=1;rounded=0;exitX=0.742;exitY=0.967;exitDx=0;exitDy=0;exitPerimeter=0;" parent="WIyWlLk6GJQsqaUBKTNV-1" source="mPyTUqxMGJh4DycX4-v5-68" edge="1">
          <mxGeometry width="50" height="50" relative="1" as="geometry">
            <mxPoint x="1294" y="615" as="sourcePoint" />
            <mxPoint x="1370" y="690" as="targetPoint" />
          </mxGeometry>
        </mxCell>
        <mxCell id="mPyTUqxMGJh4DycX4-v5-65" value="id_estacion_inicio" style="ellipse;whiteSpace=wrap;html=1;" parent="WIyWlLk6GJQsqaUBKTNV-1" vertex="1">
          <mxGeometry x="1320" y="550" width="100" height="60" as="geometry" />
        </mxCell>
        <mxCell id="mPyTUqxMGJh4DycX4-v5-67" value="id_estacion_fin" style="ellipse;whiteSpace=wrap;html=1;" parent="WIyWlLk6GJQsqaUBKTNV-1" vertex="1">
          <mxGeometry x="1430" y="550" width="100" height="60" as="geometry" />
        </mxCell>
        <mxCell id="mPyTUqxMGJh4DycX4-v5-68" value="id_linea_metro" style="ellipse;whiteSpace=wrap;html=1;" parent="WIyWlLk6GJQsqaUBKTNV-1" vertex="1">
          <mxGeometry x="1210" y="550" width="97" height="60" as="geometry" />
        </mxCell>
        <mxCell id="mPyTUqxMGJh4DycX4-v5-69" value="puntos_interes_localizaciones" style="strokeWidth=2;html=1;shape=mxgraph.flowchart.decision;whiteSpace=wrap;" parent="WIyWlLk6GJQsqaUBKTNV-1" vertex="1">
          <mxGeometry x="1275" y="1020" width="180" height="100" as="geometry" />
        </mxCell>
        <mxCell id="mPyTUqxMGJh4DycX4-v5-70" value="" style="endArrow=none;html=1;rounded=0;entryX=0.388;entryY=0.983;entryDx=0;entryDy=0;entryPerimeter=0;" parent="WIyWlLk6GJQsqaUBKTNV-1" edge="1">
          <mxGeometry width="50" height="50" relative="1" as="geometry">
            <mxPoint x="1363.96" y="1020" as="sourcePoint" />
            <mxPoint x="1444.96" y="939" as="targetPoint" />
          </mxGeometry>
        </mxCell>
        <mxCell id="mPyTUqxMGJh4DycX4-v5-72" value="" style="endArrow=none;html=1;rounded=0;exitX=0.742;exitY=0.967;exitDx=0;exitDy=0;exitPerimeter=0;" parent="WIyWlLk6GJQsqaUBKTNV-1" edge="1">
          <mxGeometry width="50" height="50" relative="1" as="geometry">
            <mxPoint x="1285.03" y="938" as="sourcePoint" />
            <mxPoint x="1363.0299999999997" y="1020" as="targetPoint" />
          </mxGeometry>
        </mxCell>
        <mxCell id="mPyTUqxMGJh4DycX4-v5-73" value="id_punto_interes" style="ellipse;whiteSpace=wrap;html=1;" parent="WIyWlLk6GJQsqaUBKTNV-1" vertex="1">
          <mxGeometry x="1215" y="880" width="97" height="60" as="geometry" />
        </mxCell>
        <mxCell id="mPyTUqxMGJh4DycX4-v5-74" value="id_localizacion" style="ellipse;whiteSpace=wrap;html=1;" parent="WIyWlLk6GJQsqaUBKTNV-1" vertex="1">
          <mxGeometry x="1425" y="880" width="80" height="60" as="geometry" />
        </mxCell>
        <mxCell id="mPyTUqxMGJh4DycX4-v5-76" value="latitud_localizacion" style="ellipse;whiteSpace=wrap;html=1;" parent="WIyWlLk6GJQsqaUBKTNV-1" vertex="1">
          <mxGeometry x="1825" y="1120" width="110" height="60" as="geometry" />
        </mxCell>
        <mxCell id="mPyTUqxMGJh4DycX4-v5-77" value="&amp;nbsp;id_localizacion&amp;nbsp;" style="ellipse;whiteSpace=wrap;html=1;" parent="WIyWlLk6GJQsqaUBKTNV-1" vertex="1">
          <mxGeometry x="1815" y="950" width="90" height="60" as="geometry" />
        </mxCell>
        <mxCell id="mPyTUqxMGJh4DycX4-v5-78" value="longitud_localizacion" style="ellipse;whiteSpace=wrap;html=1;" parent="WIyWlLk6GJQsqaUBKTNV-1" vertex="1">
          <mxGeometry x="1825" y="1040" width="120" height="60" as="geometry" />
        </mxCell>
        <mxCell id="mPyTUqxMGJh4DycX4-v5-79" value="" style="endArrow=none;html=1;rounded=0;entryX=0;entryY=0.5;entryDx=0;entryDy=0;" parent="WIyWlLk6GJQsqaUBKTNV-1" edge="1">
          <mxGeometry width="50" height="50" relative="1" as="geometry">
            <mxPoint x="1450" y="739.5" as="sourcePoint" />
            <mxPoint x="1580" y="739.5" as="targetPoint" />
          </mxGeometry>
        </mxCell>
        <mxCell id="mPyTUqxMGJh4DycX4-v5-80" value="" style="endArrow=none;html=1;rounded=0;entryX=0;entryY=0.5;entryDx=0;entryDy=0;" parent="WIyWlLk6GJQsqaUBKTNV-1" edge="1">
          <mxGeometry width="50" height="50" relative="1" as="geometry">
            <mxPoint x="1150" y="299.5" as="sourcePoint" />
            <mxPoint x="1280" y="299.5" as="targetPoint" />
          </mxGeometry>
        </mxCell>
        <mxCell id="mPyTUqxMGJh4DycX4-v5-81" value="" style="endArrow=none;html=1;rounded=0;entryX=0;entryY=0.5;entryDx=0;entryDy=0;" parent="WIyWlLk6GJQsqaUBKTNV-1" edge="1">
          <mxGeometry width="50" height="50" relative="1" as="geometry">
            <mxPoint x="1157" y="739.5" as="sourcePoint" />
            <mxPoint x="1287" y="739.5" as="targetPoint" />
          </mxGeometry>
        </mxCell>
        <mxCell id="mPyTUqxMGJh4DycX4-v5-82" value="" style="endArrow=none;html=1;rounded=0;entryX=0;entryY=0.5;entryDx=0;entryDy=0;" parent="WIyWlLk6GJQsqaUBKTNV-1" edge="1">
          <mxGeometry width="50" height="50" relative="1" as="geometry">
            <mxPoint x="1440" y="299.5" as="sourcePoint" />
            <mxPoint x="1570" y="299.5" as="targetPoint" />
          </mxGeometry>
        </mxCell>
        <mxCell id="mPyTUqxMGJh4DycX4-v5-83" value="" style="endArrow=none;html=1;rounded=0;entryX=0;entryY=0.5;entryDx=0;entryDy=0;" parent="WIyWlLk6GJQsqaUBKTNV-1" edge="1">
          <mxGeometry width="50" height="50" relative="1" as="geometry">
            <mxPoint x="1142" y="1069.5" as="sourcePoint" />
            <mxPoint x="1272" y="1069.5" as="targetPoint" />
          </mxGeometry>
        </mxCell>
        <mxCell id="mPyTUqxMGJh4DycX4-v5-84" value="" style="endArrow=none;html=1;rounded=0;entryX=0;entryY=0.5;entryDx=0;entryDy=0;" parent="WIyWlLk6GJQsqaUBKTNV-1" edge="1">
          <mxGeometry width="50" height="50" relative="1" as="geometry">
            <mxPoint x="1465" y="1069.5" as="sourcePoint" />
            <mxPoint x="1595" y="1069.5" as="targetPoint" />
          </mxGeometry>
        </mxCell>
        <mxCell id="mPyTUqxMGJh4DycX4-v5-85" value="" style="endArrow=none;html=1;rounded=0;entryX=0;entryY=0.5;entryDx=0;entryDy=0;" parent="WIyWlLk6GJQsqaUBKTNV-1" edge="1">
          <mxGeometry width="50" height="50" relative="1" as="geometry">
            <mxPoint x="1465" y="1069.5" as="sourcePoint" />
            <mxPoint x="1595" y="1069.5" as="targetPoint" />
          </mxGeometry>
        </mxCell>
        <mxCell id="mPyTUqxMGJh4DycX4-v5-86" value="" style="endArrow=none;html=1;rounded=0;entryX=0;entryY=0.5;entryDx=0;entryDy=0;" parent="WIyWlLk6GJQsqaUBKTNV-1" edge="1">
          <mxGeometry width="50" height="50" relative="1" as="geometry">
            <mxPoint x="1455" y="1069.5" as="sourcePoint" />
            <mxPoint x="1585" y="1069.5" as="targetPoint" />
          </mxGeometry>
        </mxCell>
        <mxCell id="mPyTUqxMGJh4DycX4-v5-87" value="" style="endArrow=none;html=1;rounded=0;exitX=0.5;exitY=0;exitDx=0;exitDy=0;exitPerimeter=0;entryX=0.5;entryY=1;entryDx=0;entryDy=0;" parent="WIyWlLk6GJQsqaUBKTNV-1" source="mPyTUqxMGJh4DycX4-v5-0" edge="1">
          <mxGeometry width="50" height="50" relative="1" as="geometry">
            <mxPoint x="1089.5" y="360" as="sourcePoint" />
            <mxPoint x="1090" y="327.5" as="targetPoint" />
            <Array as="points" />
          </mxGeometry>
        </mxCell>
        <mxCell id="B0xLCWAMawa5iLT7gMd6-0" value="" style="endArrow=none;html=1;rounded=0;entryX=0.027;entryY=0.657;entryDx=0;entryDy=0;entryPerimeter=0;" edge="1" parent="WIyWlLk6GJQsqaUBKTNV-1" target="mPyTUqxMGJh4DycX4-v5-35">
          <mxGeometry width="50" height="50" relative="1" as="geometry">
            <mxPoint x="1690" y="300" as="sourcePoint" />
            <mxPoint x="1740" y="250" as="targetPoint" />
          </mxGeometry>
        </mxCell>
        <mxCell id="B0xLCWAMawa5iLT7gMd6-1" value="" style="endArrow=none;html=1;rounded=0;exitX=1;exitY=0.5;exitDx=0;exitDy=0;" edge="1" parent="WIyWlLk6GJQsqaUBKTNV-1" source="mPyTUqxMGJh4DycX4-v5-6">
          <mxGeometry width="50" height="50" relative="1" as="geometry">
            <mxPoint x="1698.65" y="320.58" as="sourcePoint" />
            <mxPoint x="1740" y="340" as="targetPoint" />
          </mxGeometry>
        </mxCell>
        <mxCell id="B0xLCWAMawa5iLT7gMd6-2" value="id_tramo" style="ellipse;whiteSpace=wrap;html=1;" vertex="1" parent="WIyWlLk6GJQsqaUBKTNV-1">
          <mxGeometry x="72" y="120" width="80" height="60" as="geometry" />
        </mxCell>
        <mxCell id="B0xLCWAMawa5iLT7gMd6-3" value="" style="endArrow=none;html=1;rounded=0;" edge="1" parent="WIyWlLk6GJQsqaUBKTNV-1">
          <mxGeometry width="50" height="50" relative="1" as="geometry">
            <mxPoint x="880" y="270" as="sourcePoint" />
            <mxPoint x="1030" y="295" as="targetPoint" />
          </mxGeometry>
        </mxCell>
        <mxCell id="B0xLCWAMawa5iLT7gMd6-4" value="id_calle_fin" style="ellipse;whiteSpace=wrap;html=1;" vertex="1" parent="WIyWlLk6GJQsqaUBKTNV-1">
          <mxGeometry x="800" y="380" width="80" height="60" as="geometry" />
        </mxCell>
        <mxCell id="B0xLCWAMawa5iLT7gMd6-5" value="" style="endArrow=none;html=1;rounded=0;" edge="1" parent="WIyWlLk6GJQsqaUBKTNV-1">
          <mxGeometry width="50" height="50" relative="1" as="geometry">
            <mxPoint x="880" y="330" as="sourcePoint" />
            <mxPoint x="1030" y="297.5" as="targetPoint" />
          </mxGeometry>
        </mxCell>
        <mxCell id="B0xLCWAMawa5iLT7gMd6-6" value="" style="endArrow=none;html=1;rounded=0;entryX=0;entryY=0.5;entryDx=0;entryDy=0;" edge="1" parent="WIyWlLk6GJQsqaUBKTNV-1" target="mPyTUqxMGJh4DycX4-v5-1">
          <mxGeometry width="50" height="50" relative="1" as="geometry">
            <mxPoint x="880" y="400" as="sourcePoint" />
            <mxPoint x="1017" y="327.5" as="targetPoint" />
          </mxGeometry>
        </mxCell>
        <mxCell id="B0xLCWAMawa5iLT7gMd6-8" value="" style="endArrow=none;html=1;rounded=0;entryX=0;entryY=0.5;entryDx=0;entryDy=0;" edge="1" parent="WIyWlLk6GJQsqaUBKTNV-1" target="mPyTUqxMGJh4DycX4-v5-1">
          <mxGeometry width="50" height="50" relative="1" as="geometry">
            <mxPoint x="880" y="200" as="sourcePoint" />
            <mxPoint x="993.5" y="177.5" as="targetPoint" />
            <Array as="points" />
          </mxGeometry>
        </mxCell>
        <mxCell id="B0xLCWAMawa5iLT7gMd6-9" value="" style="endArrow=none;html=1;rounded=0;entryX=0.027;entryY=0.657;entryDx=0;entryDy=0;entryPerimeter=0;" edge="1" parent="WIyWlLk6GJQsqaUBKTNV-1">
          <mxGeometry width="50" height="50" relative="1" as="geometry">
            <mxPoint x="1150" y="400.58" as="sourcePoint" />
            <mxPoint x="1203" y="359.58" as="targetPoint" />
          </mxGeometry>
        </mxCell>
        <mxCell id="B0xLCWAMawa5iLT7gMd6-10" value="" style="endArrow=none;html=1;rounded=0;exitX=1;exitY=0.5;exitDx=0;exitDy=0;" edge="1" parent="WIyWlLk6GJQsqaUBKTNV-1">
          <mxGeometry width="50" height="50" relative="1" as="geometry">
            <mxPoint x="1150" y="400" as="sourcePoint" />
            <mxPoint x="1200" y="440" as="targetPoint" />
          </mxGeometry>
        </mxCell>
        <mxCell id="B0xLCWAMawa5iLT7gMd6-13" value="" style="endArrow=none;html=1;rounded=0;entryX=0.027;entryY=0.657;entryDx=0;entryDy=0;entryPerimeter=0;" edge="1" parent="WIyWlLk6GJQsqaUBKTNV-1">
          <mxGeometry width="50" height="50" relative="1" as="geometry">
            <mxPoint x="1700" y="736" as="sourcePoint" />
            <mxPoint x="1753" y="695" as="targetPoint" />
          </mxGeometry>
        </mxCell>
        <mxCell id="B0xLCWAMawa5iLT7gMd6-14" value="" style="endArrow=none;html=1;rounded=0;exitX=1;exitY=0.5;exitDx=0;exitDy=0;entryX=0.05;entryY=0.283;entryDx=0;entryDy=0;entryPerimeter=0;" edge="1" parent="WIyWlLk6GJQsqaUBKTNV-1" target="mPyTUqxMGJh4DycX4-v5-45">
          <mxGeometry width="50" height="50" relative="1" as="geometry">
            <mxPoint x="1700" y="735" as="sourcePoint" />
            <mxPoint x="1750" y="775" as="targetPoint" />
          </mxGeometry>
        </mxCell>
        <mxCell id="B0xLCWAMawa5iLT7gMd6-15" value="" style="endArrow=none;html=1;rounded=0;" edge="1" parent="WIyWlLk6GJQsqaUBKTNV-1">
          <mxGeometry width="50" height="50" relative="1" as="geometry">
            <mxPoint x="980" y="715" as="sourcePoint" />
            <mxPoint x="1037" y="740" as="targetPoint" />
          </mxGeometry>
        </mxCell>
        <mxCell id="B0xLCWAMawa5iLT7gMd6-16" value="" style="endArrow=none;html=1;rounded=0;" edge="1" parent="WIyWlLk6GJQsqaUBKTNV-1" source="mPyTUqxMGJh4DycX4-v5-40">
          <mxGeometry width="50" height="50" relative="1" as="geometry">
            <mxPoint x="973" y="735" as="sourcePoint" />
            <mxPoint x="1040" y="745" as="targetPoint" />
          </mxGeometry>
        </mxCell>
        <mxCell id="B0xLCWAMawa5iLT7gMd6-17" value="" style="endArrow=none;html=1;rounded=0;" edge="1" parent="WIyWlLk6GJQsqaUBKTNV-1">
          <mxGeometry width="50" height="50" relative="1" as="geometry">
            <mxPoint x="1825" y="1070" as="sourcePoint" />
            <mxPoint x="1716.5" y="1070" as="targetPoint" />
          </mxGeometry>
        </mxCell>
        <mxCell id="B0xLCWAMawa5iLT7gMd6-18" value="" style="endArrow=none;html=1;rounded=0;" edge="1" parent="WIyWlLk6GJQsqaUBKTNV-1">
          <mxGeometry width="50" height="50" relative="1" as="geometry">
            <mxPoint x="1716.5" y="1071" as="sourcePoint" />
            <mxPoint x="1825" y="1000" as="targetPoint" />
          </mxGeometry>
        </mxCell>
        <mxCell id="B0xLCWAMawa5iLT7gMd6-19" value="" style="endArrow=none;html=1;rounded=0;exitX=0.742;exitY=0.967;exitDx=0;exitDy=0;exitPerimeter=0;" edge="1" parent="WIyWlLk6GJQsqaUBKTNV-1">
          <mxGeometry width="50" height="50" relative="1" as="geometry">
            <mxPoint x="1716.5" y="1070" as="sourcePoint" />
            <mxPoint x="1825" y="1140" as="targetPoint" />
          </mxGeometry>
        </mxCell>
        <mxCell id="B0xLCWAMawa5iLT7gMd6-20" value="" style="endArrow=none;html=1;rounded=0;exitX=0.742;exitY=0.967;exitDx=0;exitDy=0;exitPerimeter=0;" edge="1" parent="WIyWlLk6GJQsqaUBKTNV-1">
          <mxGeometry width="50" height="50" relative="1" as="geometry">
            <mxPoint x="913.5" y="1000" as="sourcePoint" />
            <mxPoint x="1022" y="1070" as="targetPoint" />
          </mxGeometry>
        </mxCell>
        <mxCell id="B0xLCWAMawa5iLT7gMd6-21" value="" style="endArrow=none;html=1;rounded=0;" edge="1" parent="WIyWlLk6GJQsqaUBKTNV-1">
          <mxGeometry width="50" height="50" relative="1" as="geometry">
            <mxPoint x="1022" y="1069.5" as="sourcePoint" />
            <mxPoint x="913.5" y="1069.5" as="targetPoint" />
          </mxGeometry>
        </mxCell>
        <mxCell id="B0xLCWAMawa5iLT7gMd6-22" value="" style="endArrow=none;html=1;rounded=0;" edge="1" parent="WIyWlLk6GJQsqaUBKTNV-1">
          <mxGeometry width="50" height="50" relative="1" as="geometry">
            <mxPoint x="913.5" y="1141" as="sourcePoint" />
            <mxPoint x="1022" y="1070" as="targetPoint" />
          </mxGeometry>
        </mxCell>
        <mxCell id="B0xLCWAMawa5iLT7gMd6-23" value="" style="endArrow=none;html=1;rounded=0;exitX=0.5;exitY=0;exitDx=0;exitDy=0;exitPerimeter=0;entryX=0.5;entryY=1;entryDx=0;entryDy=0;" edge="1" parent="WIyWlLk6GJQsqaUBKTNV-1">
          <mxGeometry width="50" height="50" relative="1" as="geometry">
            <mxPoint x="1089.5" y="262.5" as="sourcePoint" />
            <mxPoint x="1089.5" y="220" as="targetPoint" />
            <Array as="points" />
          </mxGeometry>
        </mxCell>
        <mxCell id="B0xLCWAMawa5iLT7gMd6-24" value="" style="endArrow=none;html=1;rounded=0;" edge="1" parent="WIyWlLk6GJQsqaUBKTNV-1">
          <mxGeometry width="50" height="50" relative="1" as="geometry">
            <mxPoint x="1090" y="159.99999999999997" as="sourcePoint" />
            <mxPoint x="1130" y="110" as="targetPoint" />
          </mxGeometry>
        </mxCell>
        <mxCell id="B0xLCWAMawa5iLT7gMd6-25" value="" style="endArrow=none;html=1;rounded=0;" edge="1" parent="WIyWlLk6GJQsqaUBKTNV-1">
          <mxGeometry width="50" height="50" relative="1" as="geometry">
            <mxPoint x="1050" y="110" as="sourcePoint" />
            <mxPoint x="1087" y="160" as="targetPoint" />
          </mxGeometry>
        </mxCell>
      </root>
    </mxGraphModel>
  </diagram>
</mxfile>
